name rise49.8558peak67.6521fall70.3087.mot
datacolumns 19
datarows 26
range 14.49328000000000 14.53494600000000
endheader
time	ground_force1_vx	ground_force1_vy	ground_force1_vz	ground_force1_px	ground_force1_py	ground_force1_pz	ground_force2_vx	ground_force2_vy	ground_force2_vz	ground_force2_px	ground_force2_py	ground_force2_pz	ground_torque1_x	ground_torque1_y	ground_torque1_z	ground_torque2_x	ground_torque2_y	ground_torque2_z	
14.49328000000000	-56.04968400000000	823.61731299999997	64.89375699999999	0.17982300000000	0.00000000000000	0.12348700000000	0.00000000000000	0.00000000000000	0.00000000000000	0.00000000000000	0.00000000000000	0.00000000000000	0.00000000000000	35.20745500000000	0.00000000000000	0.00000000000000	0.00000000000000	0.00000000000000	
14.49494300000000	-56.30898200000000	823.11000799999999	64.99155000000000	0.17916000000000	0.00000000000000	0.12343400000000	-1.12858500000000	3.58311000000000	1.35366500000000	0.00000000000000	0.00000000000000	0.00000000000000	0.00000000000000	35.15575700000000	0.00000000000000	0.00000000000000	0.58157000000000	0.00000000000000	
14.49660900000000	-56.57055100000000	822.46466499999997	65.06827400000000	0.17850000000000	0.00000000000000	0.12337800000000	-1.78895900000000	6.98559100000000	2.29619800000000	0.00000000000000	0.00000000000000	0.00000000000000	0.00000000000000	35.09766500000000	0.00000000000000	0.00000000000000	0.99755700000000	0.00000000000000	
14.49828300000000	-56.83526300000000	821.67831999999999	65.12312000000000	0.17784300000000	0.00000000000000	0.12332000000000	-2.53156500000000	11.10806800000000	3.38977600000000	0.00000000000000	0.00000000000000	0.00000000000000	0.00000000000000	35.03322100000000	0.00000000000000	0.00000000000000	1.48239700000000	0.00000000000000	
14.49994200000000	-57.10396800000000	820.74813500000005	65.15530200000001	0.17718800000000	0.00000000000000	0.12325800000000	-3.33236600000000	15.91005100000000	4.60942200000000	0.00000000000000	0.00000000000000	0.00000000000000	0.00000000000000	34.96247500000000	0.00000000000000	0.00000000000000	2.02570500000000	0.00000000000000	
14.50161300000000	-57.37749000000000	819.67140099999995	65.16404700000000	0.17653400000000	0.00000000000000	0.12319300000000	-4.16161200000000	21.31969000000000	5.92171900000000	0.00000000000000	0.00000000000000	0.00000000000000	0.00000000000000	34.88548000000000	0.00000000000000	0.00000000000000	2.61336700000000	0.00000000000000	
14.50327500000000	-57.65662300000000	818.44554100000005	65.14861000000001	0.17588200000000	0.00000000000000	0.12312400000000	-4.98574000000000	27.23924400000000	7.28701800000000	0.39462300000000	0.00000000000000	-0.07356200000000	0.00000000000000	34.80229000000000	0.00000000000000	0.00000000000000	5.73734700000000	0.00000000000000	
14.50494900000000	-57.94212600000000	817.06811000000005	65.10826400000001	0.17523000000000	0.00000000000000	0.12305200000000	-5.76976700000000	33.55335100000000	8.66238300000000	0.40069500000000	0.00000000000000	-0.07425300000000	0.00000000000000	34.71296500000000	0.00000000000000	0.00000000000000	6.89520200000000	0.00000000000000	
14.50661500000000	-58.23471600000000	815.53679799999998	65.04231100000000	0.17457900000000	0.00000000000000	0.12297600000000	-6.47985300000000	40.13899000000000	10.00488100000000	0.40607800000000	0.00000000000000	-0.07489000000000	0.00000000000000	34.61756400000000	0.00000000000000	0.00000000000000	8.04484200000000	0.00000000000000	
14.50827700000000	-58.53506800000000	813.84942999999998	64.95008100000000	0.17392700000000	0.00000000000000	0.12289700000000	-7.08570500000000	46.87573200000000	11.27476700000000	0.41088200000000	0.00000000000000	-0.07548300000000	0.00000000000000	34.51615000000000	0.00000000000000	0.00000000000000	9.15317100000000	0.00000000000000	
14.50994200000000	-58.84380700000000	812.00396799999999	64.83093300000000	0.17327500000000	0.00000000000000	0.12281300000000	-7.56250400000000	53.65488300000000	12.43815500000000	0.41519700000000	0.00000000000000	-0.07603800000000	0.00000000000000	34.40878700000000	0.00000000000000	0.00000000000000	10.19135300000000	0.00000000000000	
14.51161300000000	-59.16150500000000	809.99850900000001	64.68425999999999	0.17262200000000	0.00000000000000	0.12272500000000	-7.89217800000000	60.38658700000000	13.46890400000000	0.41909400000000	0.00000000000000	-0.07656100000000	0.00000000000000	34.29554000000000	0.00000000000000	0.00000000000000	11.13650700000000	0.00000000000000	
14.51328000000000	-59.48867800000000	807.83129199999996	64.50948800000000	0.17196800000000	0.00000000000000	0.12263200000000	-8.06395700000000	67.00435000000000	14.34961600000000	0.42263100000000	0.00000000000000	-0.07705600000000	0.00000000000000	34.17647300000000	0.00000000000000	0.00000000000000	11.97267400000000	0.00000000000000	
14.51494700000000	-59.82577800000000	805.50068699999997	64.30607900000000	0.17131100000000	0.00000000000000	0.12253600000000	-8.07424900000000	73.46694500000000	15.07175700000000	0.42585600000000	0.00000000000000	-0.07752700000000	0.00000000000000	34.05165100000000	0.00000000000000	0.00000000000000	12.69107400000000	0.00000000000000	
14.51661500000000	-60.17319400000000	803.00520700000004	64.07353700000000	0.17065300000000	0.00000000000000	0.12243400000000	-7.92595200000000	79.75792199999999	15.63504600000000	0.42881100000000	0.00000000000000	-0.07797700000000	0.00000000000000	33.92114000000000	0.00000000000000	0.00000000000000	13.28972400000000	0.00000000000000	
14.51827600000000	-60.53124300000000	800.34349699999996	63.81140200000000	0.16999300000000	0.00000000000000	0.12232800000000	-7.62735800000000	85.88315000000000	16.04626100000000	0.43152800000000	0.00000000000000	-0.07840800000000	0.00000000000000	33.78500100000000	0.00000000000000	0.00000000000000	13.77257000000000	0.00000000000000	
14.51995000000000	-60.90017100000000	797.51434200000006	63.51926000000000	0.16933100000000	0.00000000000000	0.12221700000000	-7.19079500000000	91.86695100000000	16.31767500000000	0.43403500000000	0.00000000000000	-0.07882200000000	0.00000000000000	33.64329700000000	0.00000000000000	0.00000000000000	14.14826900000000	0.00000000000000	
14.52160900000000	-61.28014700000000	794.51666000000000	63.19674100000000	0.16866600000000	0.00000000000000	0.12210000000000	-6.63118000000000	97.74738300000000	16.46530700000000	0.43635700000000	0.00000000000000	-0.07922100000000	0.00000000000000	33.49608700000000	0.00000000000000	0.00000000000000	14.42879800000000	0.00000000000000	
14.52328100000000	-61.67125700000000	791.34950600000002	62.84352100000000	0.16799800000000	0.00000000000000	0.12197900000000	-5.96460900000000	103.57120999999999	16.50717800000000	0.43851400000000	0.00000000000000	-0.07960700000000	0.00000000000000	33.34342800000000	0.00000000000000	0.00000000000000	14.62803100000000	0.00000000000000	
14.52494600000000	-62.07350700000000	788.01206500000001	62.45932500000000	0.16732700000000	0.00000000000000	0.12185200000000	-5.20709100000000	109.38902000000000	16.46169400000000	0.44052400000000	0.00000000000000	-0.07998100000000	0.00000000000000	33.18537300000000	0.00000000000000	0.00000000000000	14.76041000000000	0.00000000000000	
14.52661200000000	-62.48681400000000	784.50365799999997	62.04392800000000	0.16665400000000	0.00000000000000	0.12172000000000	-4.37351700000000	115.25087000000001	16.34628100000000	0.44240200000000	0.00000000000000	-0.08034400000000	0.00000000000000	33.02197300000000	0.00000000000000	0.00000000000000	14.83978900000000	0.00000000000000	
14.52828300000000	-62.91100600000000	780.82373600000005	61.59715600000000	0.16597700000000	0.00000000000000	0.12158200000000	-3.47688100000000	121.20268600000000	16.17632900000000	0.44416100000000	0.00000000000000	-0.08069600000000	0.00000000000000	32.85327100000000	0.00000000000000	0.00000000000000	14.87853400000000	0.00000000000000	
14.52994900000000	-63.34582000000000	776.97187899999994	61.11889100000000	0.16529800000000	0.00000000000000	0.12143800000000	-2.52778800000000	127.28358299999999	15.96446900000000	0.44581200000000	0.00000000000000	-0.08103900000000	0.00000000000000	32.67931100000000	0.00000000000000	0.00000000000000	14.88688500000000	0.00000000000000	
14.53161600000000	-63.79089800000000	772.94779800000003	60.60906900000000	0.16461600000000	0.00000000000000	0.12128900000000	-1.53423100000000	133.52413500000000	15.72018800000000	0.44736500000000	0.00000000000000	-0.08137400000000	0.00000000000000	32.50012700000000	0.00000000000000	0.00000000000000	14.87259400000000	0.00000000000000	
14.53327900000000	-64.24578500000000	768.75132799999994	60.06768100000000	0.16393000000000	0.00000000000000	0.12113300000000	-0.50160300000000	139.94556399999999	15.44974300000000	0.44882900000000	0.00000000000000	-0.08170000000000	0.00000000000000	32.31574900000000	0.00000000000000	0.00000000000000	14.84081500000000	0.00000000000000	
14.53494600000000	-64.70992900000000	764.38243199999999	59.49478000000000	0.16324200000000	0.00000000000000	0.12097200000000	0.56709700000000	146.55973700000001	15.15633500000000	0.45021200000000	0.00000000000000	-0.08201900000000	0.00000000000000	32.12620100000000	0.00000000000000	0.00000000000000	14.79420900000000	0.00000000000000	
